<?xml version="1.0" standalone="no"?>
<!DOCTYPE svg PUBLIC "-//W3C//DTD SVG 20010904//EN"
 "http://www.w3.org/TR/2001/REC-SVG-20010904/DTD/svg10.dtd">
<svg version="1.0" xmlns="http://www.w3.org/2000/svg"
 width="386.000000pt" height="259.000000pt" viewBox="0 0 386.000000 259.000000"
 preserveAspectRatio="xMidYMid meet">
<metadata>
Created by potrace 1.16, written by Peter Selinger 2001-2019
</metadata>
<g transform="translate(0.000000,259.000000) scale(0.100000,-0.100000)"
fill="#000000" stroke="none">
<path d="M2132 2563 c-26 -38 -68 -122 -86 -173 -16 -47 -5 -61 34 -40 12 6
23 10 26 8 5 -5 -74 -156 -85 -163 -5 -3 -4 -23 1 -46 10 -37 13 -40 36 -34
24 6 25 5 18 -37 -22 -138 -32 -229 -25 -233 9 -6 19 7 64 90 21 39 49 86 62
105 l23 35 -5 -50 c-3 -27 -8 -65 -10 -82 -3 -27 0 -33 15 -33 34 0 162 151
206 243 20 42 30 46 39 17 9 -27 25 -25 25 3 0 30 37 220 55 283 8 28 15 69
15 92 l0 42 -194 0 -195 0 -19 -27z"/>
<path d="M2873 2526 c-34 -36 -74 -88 -89 -117 -22 -43 -151 -489 -179 -616
-3 -18 -11 -33 -16 -33 -11 0 -12 -93 0 -105 4 -6 14 -30 20 -55 7 -25 18 -52
24 -61 18 -24 129 -97 160 -104 15 -4 27 -11 27 -16 0 -5 18 -7 40 -5 38 4 40
3 40 -24 0 -15 -6 -46 -14 -68 l-15 -41 35 -7 c23 -4 33 -11 30 -20 -3 -7 -1
-14 3 -16 5 -2 12 -17 15 -34 6 -27 3 -34 -29 -58 -40 -31 -47 -23 -10 12 16
15 22 29 17 40 -6 15 -7 15 -10 -3 -2 -11 -13 -28 -24 -39 -11 -10 -17 -25
-13 -33 3 -9 -1 -23 -8 -32 -19 -22 -30 -54 -16 -45 7 4 10 -1 7 -12 -2 -10
-11 -20 -20 -22 -13 -3 -16 3 -12 25 3 20 2 24 -5 13 -5 -8 -8 -17 -5 -21 2
-4 -2 -10 -8 -12 -9 -4 -9 -6 -1 -6 6 -1 9 -9 6 -20 -3 -14 2 -20 21 -23 14
-3 26 -1 26 3 0 13 27 11 49 -3 16 -10 26 -5 67 27 27 22 55 46 63 54 12 14
13 14 6 -4 -10 -28 -22 -74 -29 -112 -5 -30 -3 -33 19 -33 33 0 36 -9 14 -54
-37 -77 -21 -85 57 -26 29 22 57 40 61 40 8 0 33 59 53 125 7 22 18 53 24 69
12 28 13 26 25 -45 17 -99 17 -97 43 -101 14 -2 22 -9 19 -18 -2 -8 -4 -24 -5
-35 -1 -11 -5 -26 -9 -32 -9 -14 9 -53 24 -53 6 0 22 27 36 60 15 33 30 60 34
60 5 0 6 7 3 15 -4 8 -1 15 4 15 6 0 12 -10 14 -23 5 -27 11 69 9 143 -1 30 4
67 10 82 6 15 8 36 4 45 -9 20 -9 18 4 85 4 26 5 45 0 43 -13 -9 -129 94 -129
115 0 10 -5 22 -10 25 -6 4 -8 11 -4 16 8 14 -18 69 -33 69 -17 0 -16 -22 2
-46 23 -31 18 -35 -32 -27 -27 4 -77 8 -113 8 -60 0 -65 -2 -68 -22 -4 -25
-17 -30 -26 -10 -3 8 -11 5 -24 -10 -27 -30 -37 -29 -52 6 -9 24 -9 33 3 53 9
12 21 43 27 66 10 41 13 43 29 28 47 -43 134 -57 194 -33 68 29 136 137 108
171 -6 7 -11 24 -11 37 0 13 -2 40 -5 59 -3 19 -7 58 -9 85 -2 28 -7 58 -11
68 -4 9 -5 26 -2 37 3 11 1 22 -3 25 -5 3 -9 13 -9 23 1 31 -9 106 -19 147 -6
22 -12 61 -15 86 -3 38 -1 46 12 45 24 -2 17 54 -9 74 -11 8 -25 33 -31 55 -5
22 -19 64 -31 93 l-20 52 -122 0 -121 0 -62 -64z m309 -168 c18 -71 17 -260
-1 -282 -18 -22 -106 -23 -98 -1 13 32 46 185 52 236 13 117 25 129 47 47z"/>
<path d="M3288 2578 c23 -23 12 -29 -35 -22 l-46 7 23 -34 c58 -82 103 -139
111 -139 5 0 9 9 9 20 0 11 5 20 11 20 6 0 8 -9 4 -20 -5 -15 -2 -20 12 -20
14 0 15 2 4 9 -11 7 -10 10 4 18 15 9 14 15 -14 74 -39 80 -53 99 -77 99 -14
0 -15 -3 -6 -12z"/>
<path d="M1826 2341 c-3 -5 -21 -13 -38 -16 -18 -4 -49 -19 -69 -32 -40 -26
-119 -98 -119 -108 0 -3 -11 -18 -25 -33 -14 -15 -25 -30 -25 -34 0 -4 -13
-30 -30 -58 -26 -45 -28 -51 -13 -57 9 -4 19 -1 21 5 5 15 32 16 32 2 0 -5 -4
-10 -10 -10 -5 0 -10 -9 -10 -20 0 -11 -4 -20 -8 -20 -4 0 -9 -12 -10 -26 -1
-19 2 -25 13 -20 17 6 30 -10 16 -19 -6 -3 -8 -12 -5 -20 8 -21 -101 -159
-117 -149 -5 3 -6 -2 -3 -10 4 -9 -1 -18 -10 -22 -18 -7 -22 -39 -6 -49 6 -4
6 -12 0 -23 -5 -9 -19 -38 -30 -64 -11 -27 -24 -48 -28 -48 -13 0 -30 -48 -20
-58 6 -6 6 -18 -2 -33 -12 -21 -13 -21 -23 -3 -15 27 -49 53 -69 54 -22 0 -23
-13 -3 -30 8 -7 17 -27 21 -46 3 -19 10 -34 14 -34 4 0 11 -17 15 -37 4 -21
11 -44 17 -50 12 -15 -13 -28 -37 -19 -22 8 -19 -35 6 -83 11 -22 22 -46 23
-53 4 -21 25 -71 38 -93 6 -11 29 -54 51 -95 22 -41 44 -81 50 -88 16 -20 9
-110 -13 -153 l-20 -39 45 -128 c67 -187 55 -170 115 -164 49 4 51 4 62 -26
11 -28 15 -31 52 -28 23 2 49 7 59 11 26 11 50 -2 44 -25 -3 -11 -1 -23 5 -26
5 -3 8 -15 5 -25 -3 -11 -1 -19 3 -19 5 0 8 -13 8 -29 -1 -23 -7 -31 -26 -36
-33 -8 -51 -33 -52 -67 0 -21 -10 -34 -42 -55 l-42 -28 154 -3 c84 -1 155 -1
157 2 3 2 -2 17 -11 34 -13 25 -51 231 -43 238 1 1 27 12 57 25 79 32 80 34
80 103 l0 61 76 76 77 77 -45 44 c-51 49 -75 92 -108 191 -25 75 -32 82 -72
79 -34 -3 -41 9 -26 45 17 38 23 41 69 33 21 -4 39 -6 39 -3 0 2 9 -1 19 -7
11 -6 22 -25 26 -48 3 -20 11 -44 16 -52 11 -15 8 15 -7 74 -8 32 9 35 29 5
11 -16 13 -29 5 -55 -11 -42 -3 -57 27 -50 22 6 23 4 18 -31 -7 -48 -9 -50
-34 -34 -19 11 -20 10 -14 -11 20 -62 26 -71 37 -60 7 7 15 12 19 12 13 0 49
-85 49 -114 0 -20 6 -29 21 -33 14 -4 19 -12 16 -24 -3 -11 -1 -21 4 -24 4 -3
6 -12 3 -19 -3 -8 -1 -17 5 -20 5 -4 7 -34 5 -74 -4 -54 -10 -71 -30 -90 -13
-13 -24 -26 -24 -31 0 -4 -15 -22 -32 -40 -29 -29 -35 -45 -49 -130 -11 -70
-13 -103 -5 -123 l10 -28 138 0 c76 0 138 2 138 5 0 2 -10 15 -22 28 -32 34
-57 66 -80 105 -14 23 -27 32 -46 32 l-27 0 30 25 c36 30 89 35 81 7 -4 -11 2
-22 15 -30 20 -13 21 -12 18 40 -6 123 7 162 28 81 6 -24 12 -30 22 -24 11 7
11 15 2 42 -16 48 -4 54 104 54 91 -1 94 0 109 26 9 15 16 35 16 45 0 15 -5
13 -29 -10 l-29 -28 -56 41 c-67 50 -98 89 -103 131 -1 17 -12 74 -22 128 -33
165 -33 166 -17 153 26 -22 26 6 0 53 -20 37 -23 50 -14 61 9 11 8 19 -5 39
-10 14 -16 26 -14 26 2 0 19 -4 37 -9 l33 -10 -7 34 c-7 37 13 57 47 48 27 -8
23 8 -15 58 l-34 45 19 34 c22 43 23 50 4 50 -8 0 -15 -6 -15 -12 -1 -18 -48
-51 -61 -43 -7 5 -6 11 1 20 7 8 9 23 5 34 -4 13 0 23 12 30 11 6 13 11 5 11
-9 0 -11 7 -7 20 10 32 -10 23 -44 -17 -36 -45 -40 -30 -15 48 9 27 14 52 11
55 -9 9 -85 -69 -96 -99 -6 -16 -11 -39 -11 -53 0 -31 -20 -31 -51 2 l-24 26
-5 -39 -5 -38 -53 1 c-30 1 -59 7 -65 13 -17 17 -30 13 -24 -9 10 -37 -56 -16
-102 34 -30 31 -51 34 -51 5 0 -16 -4 -19 -17 -14 -48 19 -50 18 -57 -31 -9
-70 -8 -76 12 -70 15 5 17 -6 20 -122 1 -77 8 -148 18 -181 8 -29 13 -55 11
-57 -2 -2 -35 7 -73 21 -38 14 -90 28 -116 31 -45 6 -48 5 -59 -22 -10 -23
-13 -25 -16 -11 -6 22 -19 22 -45 -3 -26 -24 -34 -19 -43 23 -10 43 -37 95
-79 150 -38 50 -34 69 8 36 42 -33 41 -16 -2 48 -50 74 -77 127 -92 182 -14
54 -8 61 23 26 l24 -28 6 100 c7 125 32 201 73 228 17 11 45 46 62 78 l31 57
-24 0 c-14 0 -25 3 -25 8 0 9 111 94 194 148 l60 39 -47 3 c-29 2 -47 8 -47
15 0 22 35 82 76 132 39 49 186 165 207 165 31 1 40 17 28 52 -10 31 -18 36
-74 53 -34 10 -67 20 -73 22 -7 3 -15 0 -18 -6z"/>
</g>
</svg>
