<?xml version="1.0" encoding="UTF-8"?>
<svg id="Calque_2" xmlns="http://www.w3.org/2000/svg" viewBox="0 0 213.01 209.51">
  <defs>
    <style>
      .cls-1 {
        fill: #1a9a38;
      }

      .cls-2 {
        fill: #d91616;
      }

      .cls-3 {
        fill: #422e16;
      }

      .cls-4 {
        fill: #bbbcbb;
      }
    </style>
  </defs>
  <g id="Calque_1-2" data-name="Calque_1">
    <g>
      <path class="cls-2" d="M166.88,41.53c-5.83,2.83-12.3,4.22-18.66,3.84-5.37-.32-10.58-1.92-15.24-4.51-.59,5.71-5.41,10.17-11.28,10.17-6.26,0-11.34-5.08-11.34-11.34v-13.46c-11.55,1.64-22.35,6.06-32.06,12.51,1.06,1.01,1.92,1.83,2.48,2.39.43.46.8.91.88,1.54v.08c-.2,3.44-2.43,10.32-3.4,14.75-.9,3.07-1.28,5.87-2.14,8.15l10.07,9.15c3.08,2.79,3.3,7.55.51,10.63l-5.13,5.65c-3.71,4.09-10.03,4.39-14.12.68l-10.21-9.28c-1.71.66-3.63,1.27-5.65,2.13-3.84,1.35-9.52,3.93-13.09,4.89-5.23,13.15-8.13,27.21-8.13,41.02,0,50.81,39.15,78.98,89.96,78.98s92.66-27.65,92.66-78.46c0-33.91-18.64-69.55-46.14-89.52Z"/>
      <path class="cls-1" d="M133.04,39.69c0,.39-.02.78-.06,1.17,4.65,2.59,9.87,4.19,15.24,4.51,6.35.38,12.82-1.01,18.66-3.84,4.65-2.26,8.9-5.43,12.34-9.35-3.4-4.45-7.23-8.09-12.02-10.96-4.79-2.86-10.3-4.63-15.95-4.7-5.54-.07-11.06,1.46-16.21,3.72-.66.29-1.33.6-1.99.92v18.53Z"/>
      <path class="cls-3" d="M121.71,51.02c5.87,0,10.69-4.46,11.28-10.17.04-.38.06-.77.06-1.17V11.34c0-6.26-5.08-11.34-11.34-11.34s-11.34,5.08-11.34,11.34v28.35c0,6.26,5.08,11.34,11.34,11.34Z"/>
      <path class="cls-4" d="M76.14,65.65c.86-2.28,1.23-5.08,2.14-8.15.98-4.43,3.2-11.32,3.41-14.75v-.08c-.1-.62-.46-1.08-.89-1.54-.56-.56-1.41-1.38-2.48-2.39-1.27-1.21-2.84-2.69-4.62-4.39-3.2-3.05-7.03-6.69-10.76-10.24-7.31-6.69-12.25-12.19-15.9-14.81-.15,0-.25.13-.32.41-.3,3.3-.06,7.28-.13,11.02,0,4.23,0,9.72,0,13.57-.03,2.22-.08,3.66.48,4.94l29.08,26.41Z"/>
      <path class="cls-4" d="M57.26,82.48l-27.58-25.05c-.62-.56-1.17-1.18-1.65-1.82-.91,0-1.94.15-3.26.34-3.82.47-9.28,1.12-13.48,1.64-3.7.52-7.69.76-10.93,1.46-.27.1-.38.21-.37.37,2.48,2.71,6.98,6.03,12.65,10.68l14.56-1.41-1.9,11.9c.96.79,1.89,1.56,2.77,2.29,3.5,2.87,6.21,5.16,7.59,6.23.5.37,1,.68,1.63.69h.08c.35-.06.74-.16,1.14-.27,3.57-.97,9.25-3.55,13.09-4.89,2.02-.87,3.94-1.48,5.65-2.13Z"/>
      <path class="cls-3" d="M57.26,82.48l10.21,9.28c4.09,3.71,10.41,3.41,14.12-.68l5.13-5.65c2.79-3.08,2.57-7.83-.51-10.63l-10.07-9.15-29.08-26.41-.47-.43c-5.14-4.67-13.09-4.29-17.76.85h0c-4.11,4.52-4.3,11.21-.79,15.94.48.65,1.03,1.26,1.65,1.82l27.58,25.05Z"/>
    </g>
  </g>
</svg>