<?xml version="1.0" encoding="UTF-8"?>
<svg id="Calque_2" xmlns="http://www.w3.org/2000/svg" viewBox="0 0 182.62 219.94">
  <defs>
    <style>
      .cls-1 {
        fill: #f8f2ab;
      }

      .cls-2 {
        fill: #f4b99c;
      }
    </style>
  </defs>
  <g id="Calque_1-2" data-name="Calque_1">
    <g>
      <path class="cls-1" d="M182.62,141.49c0,50.81-41.85,78.46-92.66,78.46S0,191.77,0,140.96,39.15,35.94,89.96,35.94s92.66,54.73,92.66,105.54Z"/>
      <path class="cls-1" d="M75.32,81.18c-15.09,4.06-42.71,11.85-59.06,16.09-7.44-1.62,11.42-49.26,16.54-61.79,4.62-10.81,9.59-24.59,12.2-28.99,11.34-19.12,21.67,9.15,24.82,18.04,2.76,7.81,14.8,52.22,5.55,56.62l-.05.02Z"/>
      <path class="cls-1" d="M109.11,81.18c15.09,4.06,42.71,11.85,59.06,16.09,7.44-1.62-11.42-49.26-16.54-61.79-4.62-10.81-9.59-24.59-12.2-28.99-11.34-19.12-21.67,9.15-24.82,18.04-2.76,7.81-14.8,52.22-5.55,56.62l.05.02Z"/>
      <path class="cls-2" d="M117.86,71.94c8.93,2.4,25.28,7.02,34.96,9.53,4.41-.96-6.76-29.16-9.79-36.58-2.73-6.4-5.68-14.56-7.22-17.16-6.71-11.32-12.83,5.41-14.69,10.68-1.64,4.62-8.76,30.92-3.28,33.52h.03Z"/>
      <path class="cls-2" d="M65.9,71.94c-8.93,2.4-25.28,7.02-34.96,9.53-4.41-.96,6.76-29.16,9.79-36.58,2.73-6.4,5.68-14.56,7.22-17.16,6.71-11.32,12.83,5.41,14.69,10.68,1.64,4.62,8.76,30.92,3.28,33.52h-.03Z"/>
    </g>
  </g>
</svg>