<?xml version="1.0" encoding="UTF-8"?>
<svg id="Calque_2" xmlns="http://www.w3.org/2000/svg" viewBox="0 0 293.83 184.04">
  <defs>
    <style>
      .cls-1 {
        fill: #f2dcce;
      }

      .cls-2 {
        fill: #f4b0cf;
      }

      .cls-3 {
        fill: #eb5b6f;
      }
    </style>
  </defs>
  <g id="Calque_1-2" data-name="Calque_1">
    <g>
      <path class="cls-1" d="M109.22,114.8c-4.19-7.26-14.23-10.02-26.24-8.35,9.25-10.74,1.77-36.93-17.69-60.32C44.84,21.56,18.94,9.41,7.42,18.99c-11.52,9.58-4.28,37.27,16.16,61.84,1.22,1.46,2.46,2.88,3.71,4.25-14.54.66-25.52,5.95-27.1,14.21-2.18,11.42,14.44,24.19,37.13,28.52,1.33.25,2.64.47,3.95.65-10.06,10.69-14.18,22.68-9.39,30.98,6.93,12,29.86,11.73,51.21-.6s33.05-32.05,26.12-44.05Z"/>
      <g>
        <path class="cls-1" d="M184.61,114.8c4.19-7.26,14.23-10.02,26.24-8.35-9.25-10.74-1.77-36.93,17.69-60.32,20.44-24.57,46.35-36.72,57.87-27.14,11.52,9.58,4.28,37.27-16.16,61.84-1.22,1.46-2.46,2.88-3.71,4.25,14.54.66,25.52,5.95,27.1,14.21,2.18,11.42-14.44,24.19-37.13,28.52-1.33.25-2.64.47-3.95.65,10.06,10.69,14.18,22.68,9.39,30.98-6.93,12-29.86,11.73-51.21-.6-21.36-12.33-33.05-32.05-26.12-44.05Z"/>
        <path class="cls-2" d="M238.22,105.54c0,50.81-41.85,78.46-92.66,78.46s-89.96-28.17-89.96-78.98S94.75,0,145.56,0s92.66,54.73,92.66,105.54Z"/>
        <path class="cls-3" d="M145.66,184.03c49.48.59,93.21-28.39,92.56-78.36.07-4.83-.22-9.66-2.45-14.12-7.89-16.5-20.89-30.42-38.52-33.94-18.85-3.62-36.05,6.76-46.96,22.54-1.22,1.83-3.15,4.44-5.15,2.05-6.45-9.03-13.93-17.02-23.88-21.48-25.33-11.47-50.64,3.91-63.31,31.05-2.66,5.39-2.44,11.21-2.27,17.02,1.8,49.89,42.9,75.48,89.76,75.23h.22Z"/>
      </g>
    </g>
  </g>
</svg>