<?xml version="1.0" encoding="UTF-8"?>
<svg id="Calque_2" xmlns="http://www.w3.org/2000/svg" viewBox="0 0 225.89 184">
  <defs>
    <style>
      .cls-1 {
        fill: #dadada;
      }

      .cls-2 {
        fill: #ebca00;
      }
    </style>
  </defs>
  <g id="Calque_1-2" data-name="Calque_1">
    <g>
      <path class="cls-2" d="M206.51,105.54c0,50.81-41.85,78.46-92.66,78.46S23.89,155.83,23.89,105.02,63.04,0,113.85,0s92.66,54.73,92.66,105.54Z"/>
      <path class="cls-1" d="M225.5,94.32c-.4-.47-1.15-.57-1.81-.62-4.55-.17-9.19-.3-13.77-.46-.62-.07-2.37.07-1.91-.92,12.43-10.91,19.69-27.47,17.49-43.68-.11-1.06-.49-2.36-1.56-2.61-18.47,2.41-36.47,9.91-52.6,18.69-.6.31-1.12.48-1.46.38-.61-.17-.66-1.06-.7-1.69-.02-4.8-1.41-9.71-4.03-13.87-1.49-2.31-3.31-5.24-5.47-2.36-23.07,26.09-45.79,75.39,1.33,88.07,10.72,2.77,23.83,4.97,33.75-1.29,13.97-8.61,26.42-21.2,30.74-37.1.24-.76.49-1.92.08-2.46l-.07-.1Z"/>
      <path class="cls-1" d="M.39,96.27c.4-.47,1.15-.57,1.81-.62,4.55-.17,9.19-.3,13.77-.46.62-.07,2.37.07,1.91-.92C5.45,83.36-1.81,66.8.39,50.59c.11-1.06.49-2.36,1.56-2.61,18.47,2.41,36.47,9.91,52.6,18.69.6.31,1.12.48,1.46.38.61-.17.66-1.06.7-1.69.02-4.8,1.41-9.71,4.03-13.87,1.49-2.31,3.31-5.24,5.47-2.36,23.07,26.09,45.79,75.39-1.33,88.07-10.72,2.77-23.83,4.97-33.75-1.29C17.17,127.31,4.72,114.71.4,98.82c-.24-.76-.49-1.92-.08-2.46l.07-.1Z"/>
    </g>
  </g>
</svg>