<?xml version="1.0" encoding="UTF-8"?>
<svg id="Calque_2" xmlns="http://www.w3.org/2000/svg" viewBox="0 0 186.25 233.19">
  <defs>
    <style>
      .cls-1 {
        fill: #ca9e67;
      }

      .cls-2 {
        fill: #f9dba0;
      }

      .cls-3 {
        fill: #f7e1b2;
      }
    </style>
  </defs>
  <g id="Calque_1-2" data-name="Calque_1">
    <g>
      <path class="cls-2" d="M136.06,18.47l-2.17,2.39,1.98-2.55c-9.62-1.64-19.88,1.6-27.02,8.2C108.57,16.17,103.37,5.97,93.36,0l-.13,3.22-.12-3.22c-9.89,5.83-15.14,15.8-15.6,25.98-7.15-6.67-17.46-9.93-27.12-8.29l1.98,2.55-2.17-2.39c-8.04,21.07,10.6,44.95,33,42.2l1.46,1.88c.32-.71.6-1.44.87-2.18.77-.13,1.54-.28,2.29-.47l-1.6-1.76c.63-2.32.98-4.71,1.08-7.12,1.18,1.11,2.44,2.17,3.83,3.13l-.1,2.38c.7-.34,1.39-.71,2.07-1.11.67.4,1.36.77,2.06,1.12l-.09-2.38c1.41-.97,2.7-2.02,3.89-3.15.05,2.61.4,5.22,1.09,7.74l-1.6,1.76c.76.19,1.52.34,2.29.47.26.74.55,1.46.87,2.18l1.46-1.88c22.41,2.75,41.04-21.13,33-42.2Z"/>
      <path class="cls-1" d="M106,56.31c0,21.63-4.2,20.39-12.83,20.39s-12.83.58-12.83-21.05,5.85-24.4,14.48-24.4,11.18,3.43,11.18,25.06Z"/>
      <path class="cls-3" d="M186.25,152.25c0,52.41-44.49,80.94-98.5,80.94S0,206.14,0,153.73s35.18-71.64,89.19-71.64,97.06,17.75,97.06,70.16Z"/>
      <path class="cls-3" d="M146.45,97.75c0,29.55-24.34,45.63-53.89,45.63s-52.32-16.39-52.32-45.94,22.52-46.92,52.07-46.92,54.14,17.67,54.14,47.22Z"/>
    </g>
  </g>
</svg>