<?xml version="1.0" encoding="UTF-8"?>
<svg id="Calque_2" xmlns="http://www.w3.org/2000/svg" viewBox="0 0 167.75 227.76">
  <defs>
    <style>
      .cls-1 {
        fill: #ed8502;
      }
    </style>
  </defs>
  <g id="Calque_1-2" data-name="Calque_1">
    <g>
      <path class="cls-1" d="M167.71,155.53c2.02,59.82-68.2,83.44-116.82,67.26C17.48,212.42-2.92,185.51.34,150.17,4.61,92.74,51.94,51.52,84.07,6.37c1.58-2.27,4.04-5.65,6.21-6.23,2.51-.79,4.81,1.93,6.33,4.02,28.11,40,68.21,97.78,71.09,151.19v.19Z"/>
      <path class="cls-1" d="M18.31,97.5c-4.41-23.69-2.48-48.69,6.2-71.09,1.14-2.77,2.99-7.56,6.4-5.03,1.24.93,2.5,2.68,3.48,4.13,6.96,10.56,13.92,21.18,20.88,31.76"/>
      <path class="cls-1" d="M156.1,113.88c4.41-23.69,2.48-48.69-6.2-71.09-1.14-2.77-2.99-7.56-6.4-5.03-1.24.93-2.5,2.68-3.48,4.13-6.96,10.56-13.92,21.18-20.88,31.76"/>
    </g>
  </g>
</svg>