<?xml version="1.0" encoding="UTF-8"?>
<svg id="Calque_2" xmlns="http://www.w3.org/2000/svg" viewBox="0 0 220.62 231.89">
  <defs>
    <style>
      .cls-1 {
        fill: #4c4f42;
      }

      .cls-2 {
        fill: #f7f1a7;
      }

      .cls-3 {
        fill: #c9e8f8;
      }

      .cls-4 {
        fill: #1da9e2;
      }
    </style>
  </defs>
  <g id="Calque_1-2" data-name="Calque_1">
    <g>
      <path class="cls-1" d="M137.99,28.22c-23.49-38.71-31.14-36.53-54.66,0-3.24,4.7-9.93,14.03-1.68,18.21,3.87,1.96,8.5-.6,11.67-3.55,8.26-7.67,6.32,4.17,7.59,8.94,1.41,5.33,2.52,2.05,6.45,3.52l-.02,1.28c.79-1.27,2.16-.16,3.32-.47,1.16.3,2.53-.8,3.32.47l-.02-1.28c3.94-1.47,5.04,1.81,6.45-3.52,1.26-4.77-.68-16.6,7.58-8.94,3.17,2.94,7.8,5.5,11.67,3.55,8.25-4.18,1.56-13.51-1.68-18.21Z"/>
      <path class="cls-4" d="M163.31,95.23c-1.07-6.76,2.13-14.12,8.58-17.9-.21.12-.41.26-.62.39-16.47-17.89-38.24-29.83-61.96-29.83s-44.77,11.75-60.6,29.43c0,0,0,0,.01,0,6.46,3.78,9.65,11.14,8.58,17.9-1.97,12.42-18.87,23.63-33.18,22.38.41.04.81.06,1.22.07-3.88,11.45-5.99,23.43-5.99,35.23,0,50.81,39.15,78.98,89.96,78.98s92.66-27.65,92.66-78.46c0-11.96-2.32-24.14-6.53-35.76-14.07.64-30.22-10.33-32.13-22.44Z"/>
      <path class="cls-3" d="M6.48,63.1c.76-1.13,1.6-2.22,2.47-3.29-.88,1.06-1.72,2.15-2.47,3.29Z"/>
      <path class="cls-2" d="M209.07,56.92c-1.91-1.91-4.02-3.66-6.33-5.21-.33-.22-.67-.44-1.01-.65-1.36-.85-2.81-1.62-4.33-2.19-1.14-.43-2.33-.74-3.57-.89-3.29-.41-6.96.54-8.87,2.94-1.84,2.3-1.67,5.07-1.16,7.95.18,1.03.4,2.07.59,3.11.08.41.15.83.21,1.24.06.41.11.82.15,1.23s.05.81.05,1.21c0,.8-.08,1.59-.28,2.35-.15.57-.37,1.13-.67,1.67-.27.5-.6.95-.97,1.37-1.3,1.46-3.14,2.5-5.1,3.43-1.97.94-4.07,1.77-5.89,2.84-6.46,3.78-9.65,11.14-8.58,17.9,1.92,12.12,18.06,23.08,32.13,22.44.35-.02.7-.03,1.05-.06,13.67-1.2,22.74-19.87,23.91-30.06.1-.85.16-1.69.19-2.54.38-10.18-3.9-20.43-11.53-28.08Z"/>
      <path class="cls-2" d="M57.31,95.23c1.07-6.76-2.13-14.12-8.58-17.9,0,0,0,0-.01,0-3.12-1.83-7.04-2.98-9.73-5.1,0,0,0,0-.01,0-.22-.17-.43-.35-.63-.54,0,0-.01,0-.02-.01-.18-.17-.35-.35-.52-.53-.02-.02-.05-.04-.07-.07-.14-.15-.26-.32-.39-.48-.04-.06-.09-.11-.14-.17-.16-.23-.31-.46-.45-.71-3.19-5.77,3.09-13.52-1.11-18.77-1.91-2.39-5.58-3.34-8.87-2.94-2.06.25-3.99.95-5.79,1.88-.72.37-1.42.77-2.11,1.2-.34.21-.68.43-1.01.65-2.3,1.55-4.42,3.3-6.33,5.21-.92.92-1.78,1.9-2.6,2.9-.88,1.06-1.72,2.15-2.47,3.29-.98,1.46-1.86,2.98-2.62,4.54-1.2,2.44-2.14,4.97-2.79,7.56-.26,1.04-.47,2.08-.64,3.13-.08.53-.15,1.05-.21,1.58-.19,1.69-.26,3.39-.19,5.08.03.85.1,1.7.19,2.54,1.17,10.19,10.24,28.86,23.91,30.06,14.31,1.25,31.22-9.96,33.18-22.38Z"/>
    </g>
  </g>
</svg>