<?xml version="1.0" encoding="UTF-8"?>
<svg id="Calque_2" xmlns="http://www.w3.org/2000/svg" viewBox="0 0 182.62 193.84">
  <defs>
    <style>
      .cls-1 {
        fill: #4c4f42;
      }

      .cls-2 {
        fill: #f6f4c4;
      }
    </style>
  </defs>
  <g id="Calque_1-2" data-name="Calque_1">
    <g>
      <path class="cls-2" d="M182.62,115.38c0,50.81-41.85,78.46-92.66,78.46S0,165.66,0,114.85,39.15,9.84,89.96,9.84s92.66,54.73,92.66,105.54Z"/>
      <path class="cls-1" d="M182.62,123c0,26.29-18.96,50.52-40.01,50.57-23.46.06-36.66-25.47-36.7-51.8-.04-26.29,18.36-52.9,39.42-52.9s37.29,27.84,37.29,54.13Z"/>
      <path class="cls-1" d="M45.69,47.68c-8.05-5.54-15.33-12.17-21.59-19.67-4.02-4.82-7.81-10.76-6.7-16.94C18.61,4.39,25.69-.18,32.49,0c6.79.19,13,4.27,17.33,9.51,4.74,5.73,7.87,12.95,10.98,19.65.63,1.35,2.01,3.57,2.02,5.03.01,2.69-1.65,3.08-4.06,4.7-4.36,2.92-8.71,5.86-13.07,8.78Z"/>
      <path class="cls-1" d="M136.92,47.68c8.05-5.54,15.33-12.17,21.59-19.67,4.02-4.82,7.81-10.76,6.7-16.94C164.01,4.39,156.92-.18,150.13,0c-6.79.19-13,4.27-17.33,9.51-4.74,5.73-7.87,12.95-10.98,19.65-.63,1.35-2.01,3.57-2.02,5.03-.01,2.69,1.65,3.08,4.06,4.7,4.36,2.92,8.71,5.86,13.07,8.78Z"/>
      <path class="cls-1" d="M0,123c0,26.29,18.96,50.52,40.01,50.57,23.46.06,36.66-25.47,36.7-51.8.04-26.29-18.36-52.9-39.42-52.9S0,96.71,0,123Z"/>
    </g>
  </g>
</svg>