<?xml version="1.0" encoding="UTF-8"?>
<svg id="Calque_2" xmlns="http://www.w3.org/2000/svg" viewBox="0 0 182.62 219.25">
  <defs>
    <style>
      .cls-1 {
        fill: none;
        stroke: #878787;
        stroke-linecap: round;
        stroke-miterlimit: 10;
        stroke-width: 5px;
      }

      .cls-2 {
        fill: #e0710d;
      }

      .cls-3 {
        fill: #c3d214;
      }

      .cls-4 {
        fill: #b2bf15;
      }
    </style>
  </defs>
  <g id="Calque_1-2" data-name="Calque_1">
    <g>
      <g>
        <path class="cls-4" d="M38.72,17.91c-.06-.65-.11-1.31-.15-1.96-.19-2.98-1.83-12.57.18-14.89,2.17-2.51,9.07.1,11.87,1.29,3.97,1.69,7.77,3.77,11.33,6.2,7.03,4.8,14.31,11.45,18.32,19.09,9.81,18.66-18.6,22.28-29.73,14.54-8.15-5.67-10.98-14.86-11.83-24.26Z"/>
        <path class="cls-4" d="M129.21,18.39c.05-.59.1-1.18.13-1.77.17-2.69,1.62-11.34-.16-13.44-1.92-2.26-8.06.09-10.54,1.16-3.53,1.52-6.9,3.4-10.07,5.6-6.25,4.33-12.71,10.34-16.28,17.23-8.72,16.85,16.52,20.11,26.41,13.13,7.24-5.12,9.75-13.41,10.51-21.9Z"/>
        <circle class="cls-4" cx="87.06" cy="37.47" r="13.36"/>
      </g>
      <path class="cls-3" d="M182.62,140.79c0,50.81-41.85,78.46-92.66,78.46S0,191.08,0,140.27,39.15,35.25,89.96,35.25s92.66,54.73,92.66,105.54Z"/>
      <g>
        <path class="cls-2" d="M124.95,97.18l-12.8,36.37c-.75,2.13-2.75,3.56-5.01,3.58l-39.79.34c-2.35.02-4.44-1.49-5.15-3.72l-11.54-35.99c-.72-2.24.1-4.68,2.03-6.03l32.56-22.86c1.85-1.3,4.31-1.3,6.16,0l31.57,22.14c1.97,1.38,2.78,3.9,1.98,6.17Z"/>
        <line class="cls-1" x1="61.53" y1="72.59" x2="73.72" y2="85.8"/>
        <line class="cls-1" x1="113.78" y1="73.1" x2="101.08" y2="85.8"/>
        <line class="cls-1" x1="48.87" y1="129.37" x2="68.99" y2="117.75"/>
        <line class="cls-1" x1="123.33" y1="129.37" x2="103.21" y2="117.75"/>
      </g>
    </g>
  </g>
</svg>