<?xml version="1.0" encoding="UTF-8"?>
<svg id="Calque_2" xmlns="http://www.w3.org/2000/svg" viewBox="0 0 182.62 242.86">
  <defs>
    <style>
      .cls-1 {
        fill: #3baa35;
      }

      .cls-2 {
        fill: #755613;
      }
    </style>
  </defs>
  <g id="Calque_1-2" data-name="Calque_1">
    <g>
      <path class="cls-2" d="M104.37,55.51c-.09-3.49-.35-7.06-1.79-10.24-1.44-3.18-4.29-5.92-7.76-6.32-3.24-.37-6.46,1.37-8.58,3.85-2.12,2.48-3.3,5.62-4.21,8.76-.68,2.32-1.42,5.08-2.07,8,3.27-.46,6.6-.71,9.99-.71,4.9,0,9.72.52,14.43,1.48,0-.05,0-.09,0-.14.02-1.56.02-3.12-.02-4.69Z"/>
      <path class="cls-1" d="M104.39,60.34c-4.71-.97-9.53-1.48-14.43-1.48-3.38,0-6.71.25-9.99.71.65-2.93,1.39-5.68,2.07-8,.91-3.13,2.09-6.27,4.21-8.76,2.12-2.48,5.33-4.23,8.58-3.85,3.46.4,6.32,3.14,7.76,6.32,1.44,3.18,1.7,6.75,1.79,10.24.04,1.56.04,3.12.02,4.69,9.89-2.57,18.74-8.56,24.03-18.4,6.76-10.62,1.93-27.52-12.32-21.84-7.87,3.23-8.71,9.13-11.65-.82-3.24-31.57-23.6-19.5-27.04,3.27-3.5-2.67-7.09-5.39-11.19-6.67-14.73-4.6-17.58,11.43-13.22,23.07,4.92,10.52,14.78,17.68,25.95,20.91C33.6,66.82,0,116.8,0,163.87c0,50.81,39.15,78.98,89.96,78.98s92.66-27.65,92.66-78.46c0-45.91-34.16-95.01-78.23-104.06Z"/>
    </g>
  </g>
</svg>