<?xml version="1.0" encoding="UTF-8"?>
<svg id="Calque_2" xmlns="http://www.w3.org/2000/svg" viewBox="0 0 200.71 205.7">
  <defs>
    <style>
      .cls-1 {
        fill: #3b4193;
      }

      .cls-2 {
        fill: #bbbcbb;
      }
    </style>
  </defs>
  <g id="Calque_1-2" data-name="Calque_1">
    <g>
      <path class="cls-1" d="M191.24,125.38c0,44.86-41.85,69.28-92.66,69.28S8.62,169.78,8.62,124.91,47.77,32.19,98.58,32.19s92.66,48.33,92.66,93.19Z"/>
      <path class="cls-2" d="M98.66,194.82c39.66.42,85.42-16.96,91.89-59.23,1.62-8.68.18-18.13-6-24.74-16.91-19.62-49.82-22.77-70.54-6.46-4.97,3.45-7.69,8.35-12.58,8.57-4.56-.66-6.62-5.18-10.8-8.98-10.8-10.62-26.44-15.92-41.51-14.44-17.16,1.72-36.66,12.41-40.05,29.92-3.15,24.03,9.35,47.72,29.55,60.04,15.57,10.25,39.02,15.49,59.81,15.31h.23Z"/>
      <rect class="cls-2" x="34.43" y="162.76" width="35.13" height="39.61" rx="13.71" ry="13.71" transform="translate(84.27 -4.5) rotate(25.68)"/>
      <rect class="cls-2" x="131.52" y="162.76" width="35.13" height="39.61" rx="13.71" ry="13.71" transform="translate(362.56 282.49) rotate(154.32)"/>
      <rect class="cls-2" x="85.48" y="166.09" width="35.13" height="39.61" rx="13.71" ry="13.71"/>
      <path class="cls-1" d="M10.06,77.2C4.96,72.71.26,66.91.01,60.13c-.14-3.88,1.2-7.65,2.53-11.31,3.16-8.7,6.34-17.45,10.87-25.52C17.94,15.23,23.93,7.79,31.72,2.8c3.7-2.37,8.73-4.09,12.28-1.51,2.93,2.13,3.48,6.22,3.68,9.84.4,7.19.44,14.41.12,21.61,5.3,3.57,10.6,7.15,15.9,10.72,2.11,1.42,4.34,2.99,5.26,5.36,1.1,2.85.02,6.05-1.29,8.8-5.25,11-14.53,19.92-25.53,25.1-4.24,2-10.29,5.26-15.14,4.79-6.1-.59-12.56-6.45-16.94-10.31Z"/>
      <path class="cls-1" d="M190.65,77.2c5.1-4.49,9.8-10.28,10.05-17.07.14-3.88-1.2-7.65-2.53-11.31-3.16-8.7-6.34-17.45-10.87-25.52s-10.52-15.51-18.31-20.5c-3.7-2.37-8.73-4.09-12.28-1.51-2.93,2.13-3.48,6.22-3.68,9.84-.4,7.19-.44,14.41-.12,21.61-5.3,3.57-10.6,7.15-15.9,10.72-2.11,1.42-4.34,2.99-5.26,5.36-1.1,2.85-.02,6.05,1.29,8.8,5.25,11,14.53,19.92,25.53,25.1,4.24,2,10.29,5.26,15.14,4.79,6.1-.59,12.56-6.45,16.94-10.31Z"/>
    </g>
  </g>
</svg>