<?xml version="1.0" encoding="UTF-8"?>
<svg id="Calque_2" xmlns="http://www.w3.org/2000/svg" viewBox="0 0 198.87 205.31">
  <defs>
    <style>
      .cls-1 {
        fill: #fad501;
      }

      .cls-2 {
        fill: #026491;
      }
    </style>
  </defs>
  <g id="Calque_1-2" data-name="Calque_1">
    <g>
      <path class="cls-2" d="M172.47,115.76c-.07-5.07-1.04-10.26-3.03-15.39l-27.8-71.45c-15.1-38.8-71.44-38.47-86.07.5l-26.33,70.14c-2.03,5.41-2.93,10.88-2.83,16.21C10.02,125.27,0,137.98,0,151.96c0,29.47,44.52,53.35,99.44,53.35s99.44-23.89,99.44-53.35c0-13.97-10.02-26.69-26.4-36.2Z"/>
      <path class="cls-1" d="M170.27,151.86c-46.51,20.09-97.56,19.13-143.99-.93-9.38-4.39-18.39-16.08-11.55-26.32,5.06-6.77,7.59-10.16,12.66-16.93,45.03,28.37,99.3,27.93,144.39,0,5.06,6.77,6.93,10.39,11.13,17.47,5.49,10.73-3.04,22.17-12.64,26.7Z"/>
    </g>
  </g>
</svg>