<?xml version="1.0" encoding="UTF-8"?>
<svg id="Calque_2" xmlns="http://www.w3.org/2000/svg" viewBox="0 0 42.66 42.52">
  <defs>
    <style>
      .cls-1 {
        fill: rgba(236, 231, 223, 0.6);
      }
    </style>
  </defs>
  <g id="Calque_1-2" data-name="Calque_1">
    <g>
      <path class="cls-1"
            d="M10.64,1.35c.11.09.23.18.35.27,1.17.84,2.58,1.37,4.18,1.59.38.05.58.06,1.23.06.78,0,1.01,0,1.63-.11.64-.11,1.27-.28,1.84-.51.02.05.03.11.05.17.08.26.15.45.19.61,0,0-.02.02-.02.02-.78.83-1.13,2.03-1.03,3.56.04.6.03,2.18,0,2.7-.16,2-.56,3.57-1.25,4.94-.96,1.9-2.39,3.28-4.49,4.33-.51.25-.75.36-1.63.73-.49.2-.82.34-1.05.45-.24-.11-.59-.26-.87-.38-1.51-.62-2.33-1.03-3.14-1.58-.59-.4-.99-.74-1.52-1.27-.71-.73-1.22-1.44-1.68-2.39-.91-1.85-1.33-4.24-1.23-6.92.06-1.5.03-2.06-.25-2.88-.17-.49-.45-.96-.79-1.31.06-.19.13-.4.2-.63.02-.05.03-.09.04-.14.65.26,1.38.45,2.19.56.38.05.98.07,1.39.07.25,0,.49,0,.66-.02,1.25-.1,2.42-.42,3.47-.94.58-.29,1.06-.59,1.53-.96M10.65,0l-.19.18c-.57.53-1.09.89-1.79,1.24-.95.47-1.98.74-3.11.84-.15.01-.35.02-.58.02-.45,0-.98-.02-1.26-.06-1.09-.15-2.02-.46-2.74-.9-.09-.06-.15-.09-.18-.09,0,0,0,0,0,0,0,.02-.19.57-.4,1.24C.19,3.14,0,3.7,0,3.72c0,.02.04.06.12.12.37.24.7.71.87,1.21.22.64.25,1.04.19,2.51-.11,2.85.35,5.4,1.33,7.4.51,1.04,1.07,1.84,1.87,2.65.58.59,1.02.96,1.67,1.4.86.58,1.75,1.03,3.32,1.67.37.15.81.34.97.43l.3.15.09-.06c.14-.09.52-.26,1.32-.59.89-.37,1.15-.49,1.69-.75,2.29-1.15,3.88-2.69,4.93-4.77.76-1.5,1.19-3.18,1.36-5.32.04-.56.05-2.19.01-2.84-.08-1.24.18-2.19.77-2.81.14-.15.35-.32.43-.35.02,0-.1-.39-.38-1.28-.22-.7-.41-1.27-.42-1.27s-.09.04-.18.1c-.65.39-1.52.7-2.41.84-.54.09-.71.1-1.47.1-.65,0-.79,0-1.1-.05-1.44-.19-2.68-.66-3.73-1.41-.28-.21-.6-.47-.78-.66l-.13-.14h0Z"/>
      <g>
        <path class="cls-1"
              d="M40.01,12.65c.19,4-2.48,6.87-6.45,7.14-7.53.94-10.96-4.01-8.97-11.04,4.42-14.51,14.73-8.21,15.41,3.9h0ZM39.21,12.65c-.13-4.18-1.67-9.15-5.46-11.39-4.59-2.01-7.57,4-8.47,7.66-1.64,6.7,1.14,10.6,8.19,9.95,3.55-.18,5.88-2.65,5.74-6.22h0Z"/>
        <path class="cls-1"
              d="M32.37,7.06c.07,0,.42-.06.63-.35.23-.33.11-.73.08-.83-.24-.77-1.28-1-1.38-1.02-.77-.16-1.86.06-2.44.98-.49.79-.41,1.78.08,2.48.59.84,1.72,1.19,2.75.83.18-.01.63-.03.98.28.12.1.24.25.39.67.13.35.29.78.31,1.46.03.63.06,1.32-.31,2.01-.13.25-.76,1.31-1.97,1.46-.81.1-2.03-.21-2.36-1.18-.3-.88.33-1.72.39-1.81-.89.08-1.63.57-1.89,1.26-.32.87.27,1.7.51,2.05,1.13,1.59,3.31,1.61,3.58,1.61.14,0,2.45-.05,3.78-1.85.52-.7.68-1.4.79-1.85.15-.62.42-1.77-.12-3.03-.41-.98-1.11-1.56-1.53-1.85-1.17-.79-2.37-.77-2.75-.75-.05-.01-.81-.22-.98-.87-.02-.06-.14-.55.16-.83.26-.24.68-.16.9-.04.11.05.33.19.43.47.13.35-.01.66-.04.71Z"/>
      </g>
      <g>
        <path class="cls-1"
              d="M18.61,34.56c.19,4-2.48,6.87-6.45,7.14-7.53.94-10.96-4.01-8.97-11.04,4.42-14.51,14.73-8.21,15.41,3.9h0ZM17.81,34.56c-.13-4.18-1.67-9.15-5.46-11.39-4.59-2.01-7.57,4-8.47,7.66-1.64,6.7,1.14,10.6,8.19,9.95,3.55-.18,5.88-2.65,5.74-6.22h0Z"/>
        <path class="cls-1"
              d="M10.97,28.97c.07,0,.42-.06.63-.35.23-.33.11-.73.08-.83-.24-.77-1.28-1-1.38-1.02-.77-.16-1.86.06-2.44.98-.49.79-.41,1.78.08,2.48.59.84,1.72,1.19,2.75.83.18-.01.63-.03.98.28.12.1.24.25.39.67.13.35.29.78.31,1.46.03.63.06,1.32-.31,2.01-.13.25-.76,1.31-1.97,1.46-.81.1-2.03-.21-2.36-1.18-.3-.88.33-1.72.39-1.81-.89.08-1.63.57-1.89,1.26-.32.87.27,1.7.51,2.05,1.13,1.59,3.31,1.61,3.58,1.61.14,0,2.45-.05,3.78-1.85.52-.7.68-1.4.79-1.85.15-.62.42-1.77-.12-3.03-.41-.98-1.11-1.56-1.53-1.85-1.17-.79-2.37-.77-2.75-.75-.05-.01-.81-.22-.98-.87-.02-.06-.14-.55.16-.83.26-.24.68-.16.9-.04.11.05.33.19.43.47.13.35-.01.66-.04.71Z"/>
      </g>
      <path class="cls-1"
            d="M32.03,22.61c.11.09.23.18.35.27,1.17.84,2.58,1.37,4.18,1.59.38.05.58.06,1.23.06.78,0,1.01,0,1.63-.11.64-.11,1.27-.28,1.84-.51.02.05.03.11.05.17.08.26.15.45.19.61,0,0-.02.02-.02.02-.78.83-1.13,2.03-1.03,3.56.04.6.03,2.18,0,2.7-.16,2-.56,3.57-1.25,4.94-.96,1.9-2.39,3.28-4.49,4.33-.51.25-.75.36-1.63.73-.49.2-.82.34-1.05.45-.24-.11-.59-.26-.87-.38-1.51-.62-2.33-1.03-3.14-1.58-.59-.4-.99-.74-1.52-1.27-.71-.73-1.22-1.44-1.68-2.39-.91-1.85-1.33-4.24-1.23-6.92.06-1.5.03-2.06-.25-2.88-.17-.49-.45-.96-.79-1.31.06-.19.13-.4.2-.63.02-.05.03-.09.04-.14.65.26,1.38.45,2.19.56.38.05.98.07,1.39.07.25,0,.49,0,.66-.02,1.25-.1,2.42-.42,3.47-.94.58-.29,1.06-.59,1.53-.96M32.04,21.26l-.19.18c-.57.53-1.09.89-1.79,1.24-.95.47-1.98.74-3.11.84-.15.01-.35.02-.58.02-.45,0-.98-.02-1.26-.06-1.09-.15-2.02-.46-2.74-.9-.09-.06-.15-.09-.18-.09,0,0,0,0,0,0,0,.02-.19.57-.4,1.24-.21.67-.4,1.23-.4,1.25,0,.02.04.06.12.12.37.24.7.71.87,1.21.22.64.25,1.04.19,2.51-.11,2.85.35,5.4,1.33,7.4.51,1.04,1.07,1.84,1.87,2.65.58.59,1.02.96,1.67,1.4.86.58,1.75,1.03,3.32,1.67.37.15.81.34.97.43l.3.15.09-.06c.14-.09.52-.26,1.32-.59.89-.37,1.15-.49,1.69-.75,2.29-1.15,3.88-2.69,4.93-4.77.76-1.5,1.19-3.18,1.36-5.32.04-.56.05-2.19.01-2.84-.08-1.24.18-2.19.77-2.81.14-.15.35-.32.43-.35.02,0-.1-.39-.38-1.28-.22-.7-.41-1.27-.42-1.27s-.09.04-.18.1c-.65.39-1.52.7-2.41.84-.54.09-.71.1-1.47.1-.65,0-.79,0-1.1-.05-1.44-.19-2.68-.66-3.73-1.41-.28-.21-.6-.47-.78-.66l-.13-.14h0Z"/>
    </g>
  </g>
</svg>
